M48
; DRILL file {KiCad 5.1.4} date Fri Aug 23 02:01:08 2019
; FORMAT={-:-/ absolute / inch / decimal}
; #@! TF.CreationDate,2019-08-23T02:01:08-04:00
; #@! TF.GenerationSoftware,Kicad,Pcbnew,5.1.4
; #@! TF.FileFunction,Plated,1,4,PTH
FMAT,2
INCH
T1C0.0118
T2C0.0157
T3C0.0197
T4C0.0236
T5C0.0300
T6C0.0315
T7C0.0394
T8C0.0591
%
G90
G05
T1
X5.8602Y-3.4638
X5.8936Y-3.4638
X5.9212Y-3.4636
X6.0165Y-3.2435
X6.0485Y-3.2431
X6.0844Y-3.2407
T2
X2.5616Y-3.4976
X2.5622Y-3.083
X2.5623Y-3.655
X2.5629Y-3.2404
X2.5633Y-2.6681
X2.564Y-2.8255
X2.6224Y-3.4976
X2.623Y-3.083
X2.6231Y-3.6558
X2.6237Y-3.2412
X2.6241Y-2.6681
X2.6248Y-2.8263
X2.6811Y-3.6542
X2.6812Y-3.498
X2.6817Y-3.2396
X2.6818Y-3.0834
X2.6828Y-2.8247
X2.6829Y-2.6685
X2.7606Y-3.9524
X2.8169Y-3.4843
X2.8169Y-3.6496
X2.8189Y-2.8189
X2.8189Y-2.9724
X2.8189Y-3.0217
X2.8189Y-3.0709
X2.8189Y-3.2343
X2.8189Y-3.3858
X2.8189Y-3.8012
X2.8209Y-3.437
X2.8209Y-3.8524
X2.878Y-3.3583
X2.8799Y-3.7618
X2.8937Y-2.876
X2.8953Y-3.7213
X2.8976Y-2.9417
X2.9019Y-3.31
X2.9547Y-3.9409
X3.0037Y-2.6297
X3.0256Y-3.4921
X3.0276Y-3.0741
X3.0327Y-3.1362
X3.0331Y-3.7149
X3.0342Y-3.5554
X3.038Y-2.9194
X3.0423Y-3.3363
X3.0669Y-3.5236
X3.0707Y-4.4354
X3.0835Y-2.7201
X3.0837Y-3.2893
X3.1193Y-2.2764
X3.1677Y-1.9791
X3.1677Y-2.1563
X3.1697Y-1.5776
X3.1697Y-1.7528
X3.177Y-3.146
X3.1799Y-2.9318
X3.2425Y-1.8315
X3.2445Y-2.113
X3.2675Y-2.3126
X3.2898Y-1.9339
X3.3035Y-1.9772
X3.3048Y-4.5631
X3.3055Y-3.0833
X3.306Y-3.8229
X3.3063Y-2.3397
X3.3065Y-4.929
X3.3072Y-2.7092
X3.3074Y-3.4489
X3.3077Y-4.1887
X3.3222Y-4.738
X3.3222Y-4.7735
X3.3224Y-4.368
X3.3224Y-4.4034
X3.3229Y-2.5182
X3.3229Y-2.5537
X3.3231Y-2.8882
X3.3231Y-2.9236
X3.3231Y-3.258
X3.3231Y-3.2934
X3.3234Y-3.9978
X3.3234Y-4.0332
X3.3236Y-3.6278
X3.3236Y-3.6632
X3.3406Y-1.6248
X3.3642Y-2.0807
X3.3685Y-1.3827
X3.3705Y-1.5992
X3.4109Y-4.8579
X3.4111Y-4.4878
X3.4116Y-2.6381
X3.4118Y-3.3778
X3.412Y-3.0071
X3.412Y-2.7834
X3.4121Y-2.4141
X3.4121Y-4.1176
X3.4123Y-3.7476
X3.4123Y-3.1539
X3.4124Y-3.8929
X3.4125Y-3.5232
X3.4126Y-4.6329
X3.4127Y-4.263
X3.4299Y-1.5976
X3.4531Y-1.7429
X3.4591Y-1.8295
X3.4844Y-5.4996
X3.4844Y-5.5547
X3.5348Y-4.7833
X3.535Y-4.4132
X3.5355Y-2.5635
X3.5357Y-2.9335
X3.5357Y-3.3032
X3.5358Y-2.858
X3.5359Y-2.4886
X3.536Y-4.0431
X3.536Y-3.2274
X3.5362Y-3.673
X3.5362Y-3.9675
X3.5363Y-3.5977
X3.5364Y-4.7075
X3.5365Y-4.3376
X3.5622Y-1.4909
X3.5663Y-4.7833
X3.5665Y-4.4132
X3.567Y-2.5635
X3.5672Y-2.9335
X3.5672Y-3.3032
X3.5673Y-2.858
X3.5674Y-2.4886
X3.5675Y-4.0431
X3.5675Y-3.2274
X3.5677Y-3.673
X3.5677Y-3.9675
X3.5678Y-3.5977
X3.5679Y-4.7075
X3.568Y-4.3376
X3.5823Y-2.0236
X3.5844Y-5.4996
X3.5844Y-5.5547
X3.6091Y-1.7433
X3.6126Y-1.6083
X3.6398Y-2.1594
X3.6461Y-2.2803
X3.6844Y-5.4996
X3.6844Y-5.5547
X3.7042Y-2.3103
X3.728Y-1.6803
X3.7421Y-1.872
X3.7844Y-5.5547
X3.7844Y-5.4996
X3.7894Y-1.9035
X3.8386Y-2.0276
X3.8844Y-5.4996
X3.8844Y-5.5547
X3.8898Y-2.0236
X3.9322Y-1.825
X3.933Y-1.7642
X3.9338Y-1.883
X3.9391Y-2.0289
X3.9602Y-2.0621
X3.9844Y-5.4996
X3.9844Y-5.5547
X4.0844Y-5.4996
X4.0844Y-5.5547
X4.09Y-1.8831
X4.0904Y-1.7635
X4.0904Y-1.8243
X4.1036Y-4.8617
X4.1041Y-3.7515
X4.1043Y-2.3449
X4.1043Y-3.0854
X4.1043Y-3.826
X4.1043Y-4.5665
X4.1043Y-3.3813
X4.1044Y-4.1214
X4.1044Y-4.4915
X4.1045Y-4.1961
X4.1046Y-2.7154
X4.1048Y-3.4561
X4.1048Y-2.6413
X4.1048Y-3.0111
X4.1319Y-1.6449
X4.1351Y-4.8617
X4.1356Y-3.7515
X4.1358Y-2.3449
X4.1358Y-3.0854
X4.1358Y-3.826
X4.1358Y-4.5665
X4.1358Y-3.3813
X4.1359Y-4.1214
X4.1359Y-4.4915
X4.136Y-4.1961
X4.1361Y-2.7154
X4.1363Y-3.4561
X4.1363Y-2.6413
X4.1363Y-3.0111
X4.1496Y-1.8386
X4.1555Y-2.5217
X4.1638Y-1.7193
X4.1685Y-1.6075
X4.1844Y-5.4996
X4.1844Y-5.5547
X4.259Y-4.7871
X4.2595Y-3.677
X4.2597Y-2.4194
X4.2597Y-3.16
X4.2597Y-3.9005
X4.2597Y-4.6411
X4.2597Y-3.3067
X4.2598Y-4.0468
X4.2598Y-4.4169
X4.2599Y-4.2707
X4.26Y-2.79
X4.2602Y-3.5307
X4.2602Y-2.5667
X4.2602Y-2.9365
X4.2844Y-5.4996
X4.2844Y-5.5547
X4.3477Y-4.8715
X4.3484Y-2.2996
X4.3484Y-2.335
X4.3484Y-3.0402
X4.3484Y-3.0756
X4.3484Y-3.7807
X4.3484Y-3.8162
X4.3484Y-4.5213
X4.3484Y-4.5567
X4.3486Y-4.1509
X4.3486Y-4.1863
X4.3487Y-2.6701
X4.3487Y-2.7056
X4.3489Y-3.4109
X4.3489Y-3.4463
X4.3641Y-4.7122
X4.3643Y-4.3418
X4.3644Y-2.8611
X4.3646Y-3.6018
X4.366Y-2.4947
X4.366Y-3.2353
X4.366Y-3.9758
X4.3844Y-5.4996
X4.3844Y-5.5547
X4.4498Y-2.2972
X4.4844Y-5.4996
X4.4844Y-5.5547
X4.5106Y-2.1457
X4.5686Y-2.6005
X4.5768Y-2.2224
X4.5772Y-2.2937
X4.5844Y-5.4996
X4.5844Y-5.5547
X4.599Y-2.7422
X4.6049Y-2.6167
X4.6201Y-2.2598
X4.622Y-2.1988
X4.6381Y-2.7465
X4.6465Y-2.9495
X4.6474Y-3.3566
X4.6502Y-3.1709
X4.6511Y-3.005
X4.6516Y-3.3051
X4.6549Y-3.4045
X4.6551Y-2.4476
X4.6555Y-2.878
X4.6561Y-3.1192
X4.6585Y-3.5799
X4.6587Y-3.5405
X4.6844Y-5.5547
X4.6844Y-5.4996
X4.7067Y-3.8819
X4.7473Y-4.5862
X4.7476Y-4.5512
X4.7844Y-5.4996
X4.7844Y-5.5547
X4.7857Y-2.7203
X4.7866Y-3.1323
X4.7933Y-3.9685
X4.8082Y-2.1498
X4.811Y-3.0039
X4.8193Y-5.1075
X4.8228Y-3.5413
X4.8284Y-2.5879
X4.8296Y-4.4323
X4.857Y-2.0738
X4.8587Y-4.9694
X4.859Y-4.9344
X4.8661Y-2.4941
X4.8661Y-2.9094
X4.8673Y-3.3717
X4.8681Y-4.4325
X4.8681Y-2.5453
X4.8681Y-2.9606
X4.8681Y-3.1122
X4.8681Y-3.2736
X4.8681Y-3.3248
X4.8681Y-3.4252
X4.8681Y-3.4744
X4.8697Y-2.1496
X4.8701Y-2.6969
X4.8701Y-2.8622
X4.8844Y-5.4996
X4.8844Y-5.5547
X4.8941Y-2.0738
X4.8984Y-4.2954
X4.8986Y-4.3296
X4.9053Y-4.4325
X4.9323Y-4.8158
X4.939Y-4.7129
X4.9392Y-4.6787
X4.9627Y-2.0826
X4.9683Y-4.1083
X4.9695Y-4.8158
X4.9786Y-4.5511
X4.9789Y-4.5861
X4.9844Y-5.4996
X4.9844Y-5.5547
X4.9969Y-4.2597
X4.998Y-3.3819
X5.0042Y-3.2622
X5.0042Y-3.6756
X5.0043Y-3.106
X5.0043Y-3.5194
X5.0053Y-2.8489
X5.0054Y-2.6927
X5.008Y-4.8156
X5.0181Y-2.1465
X5.0514Y-2.2509
X5.0515Y-5.1175
X5.0542Y-2.1911
X5.0623Y-3.1044
X5.0623Y-3.5178
X5.063Y-3.2626
X5.063Y-3.676
X5.0634Y-2.6911
X5.0641Y-2.8493
X5.0642Y-4.5862
X5.0645Y-4.5512
X5.0844Y-5.4996
X5.0844Y-5.5547
X5.09Y-4.9345
X5.0903Y-4.9695
X5.1201Y-3.7845
X5.1231Y-3.1052
X5.1231Y-3.5186
X5.1238Y-3.2626
X5.1238Y-3.676
X5.1242Y-2.6919
X5.1249Y-2.8493
X5.1465Y-4.4323
X5.1594Y-3.3248
X5.1751Y-4.9695
X5.1754Y-4.9345
X5.1811Y-3.5669
X5.1844Y-5.5547
X5.1844Y-5.4996
X5.185Y-4.4325
X5.1909Y-3.624
X5.2067Y-3.7402
X5.2153Y-4.2954
X5.2155Y-4.3296
X5.2222Y-4.4325
X5.2264Y-3.874
X5.2323Y-3.189
X5.2341Y-5.2522
X5.2487Y-4.8159
X5.2554Y-4.713
X5.2556Y-4.6788
X5.2565Y-3.4439
X5.2815Y-3.7402
X5.2832Y-4.1745
X5.2844Y-5.4996
X5.2844Y-5.5547
X5.2859Y-4.8159
X5.2953Y-3.437
X5.2955Y-4.5511
X5.2958Y-4.5861
X5.3051Y-2.998
X5.3138Y-4.3065
X5.3244Y-4.8157
X5.3543Y-3.437
X5.3568Y-3.7928
X5.3602Y-3.5984
X5.376Y-3.0768
X5.3811Y-4.5862
X5.3814Y-4.5512
X5.3844Y-5.4996
X5.3844Y-5.5547
X5.3941Y-2.4587
X5.3976Y-3.5814
X5.4064Y-4.9346
X5.4067Y-4.9696
X5.4272Y-3.6594
X5.4347Y-5.3517
X5.4377Y-3.2841
X5.4528Y-3.4035
X5.4528Y-3.4626
X5.4612Y-3.7033
X5.4631Y-3.8598
X5.4634Y-4.4323
X5.4701Y-2.6039
X5.4843Y-3.2402
X5.4844Y-5.4996
X5.4844Y-5.5547
X5.492Y-4.9696
X5.4923Y-4.9346
X5.5019Y-4.4325
X5.5138Y-3.2756
X5.5233Y-3.7031
X5.5241Y-3.8598
X5.5322Y-4.2954
X5.5324Y-4.3296
X5.5391Y-4.4325
X5.5602Y-3.0504
X5.5605Y-3.4035
X5.5656Y-4.816
X5.5723Y-4.7131
X5.5725Y-4.6789
X5.5838Y-3.7033
X5.5844Y-5.4996
X5.5844Y-5.5547
X5.5846Y-3.8598
X5.5945Y-4.0276
X5.6004Y-4.2329
X5.6028Y-4.816
X5.6124Y-4.5511
X5.6127Y-4.5861
X5.615Y-2.7917
X5.6236Y-3.0051
X5.6307Y-4.3268
X5.6358Y-3.4783
X5.6358Y-3.5374
X5.6413Y-4.8158
X5.6413Y-2.3
X5.6455Y-3.2193
X5.6463Y-3.2796
X5.6844Y-5.4996
X5.6844Y-5.5547
X5.6967Y-3.3644
X5.6981Y-4.5862
X5.6984Y-4.5512
X5.7126Y-3.0315
X5.7126Y-3.5925
X5.7233Y-4.9347
X5.7236Y-4.9697
X5.7319Y-3.1205
X5.7441Y-3.752
X5.7553Y-3.3591
X5.7804Y-4.4323
X5.7844Y-5.4996
X5.7844Y-5.5547
X5.7911Y-3.936
X5.8Y-3.0876
X5.8087Y-4.9697
X5.809Y-4.9347
X5.8189Y-4.4325
X5.8345Y-5.2543
X5.8366Y-3.9169
X5.8412Y-3.2709
X5.8416Y-3.2145
X5.8425Y-3.0846
X5.8492Y-4.2954
X5.8494Y-4.3296
X5.8561Y-4.4325
X5.8582Y-2.9033
X5.8582Y-2.9623
X5.8701Y-3.9705
X5.8787Y-3.5272
X5.8823Y-4.8161
X5.8844Y-5.5547
X5.8844Y-5.4996
X5.889Y-4.7132
X5.8892Y-4.679
X5.895Y-3.6893
X5.8952Y-3.6272
X5.8952Y-3.7498
X5.8984Y-3.2149
X5.8984Y-3.2709
X5.9152Y-2.9033
X5.9175Y-4.2134
X5.9195Y-4.8161
X5.9212Y-3.4004
X5.9217Y-3.8972
X5.9294Y-4.5511
X5.9297Y-4.5861
X5.9475Y-4.3135
X5.9508Y-3.9291
X5.958Y-4.8159
X5.9646Y-2.7697
X5.9712Y-3.4114
X5.9816Y-2.9622
X5.9822Y-2.9033
X5.9844Y-5.4996
X5.9844Y-5.5547
X5.9941Y-4.1535
X6.0051Y-3.8965
X6.0133Y-3.6311
X6.0133Y-3.6921
X6.0133Y-3.7526
X6.0148Y-4.5861
X6.0151Y-4.5511
X6.0304Y-3.159
X6.0316Y-3.4716
X6.0335Y-3.0098
X6.0354Y-3.0984
X6.04Y-4.9348
X6.0403Y-4.9698
X6.0441Y-2.0811
X6.0557Y-3.8962
X6.0578Y-4.1883
X6.0844Y-5.5547
X6.0844Y-5.4996
X6.0924Y-5.1498
X6.0971Y-4.4322
X6.1009Y-3.9336
X6.1154Y-4.1517
X6.1257Y-4.9705
X6.126Y-4.9355
X6.1268Y-2.302
X6.1319Y-5.3058
X6.1339Y-2.7244
X6.1356Y-4.4324
X6.1455Y-4.2356
X6.1514Y-2.7659
X6.1641Y-2.8417
X6.1659Y-4.2953
X6.1661Y-4.3295
X6.1693Y-3.7402
X6.1698Y-3.6292
X6.17Y-3.6913
X6.1728Y-4.4324
X6.1844Y-5.5547
X6.1844Y-5.4996
X6.1885Y-2.7659
X6.1993Y-4.8169
X6.2004Y-3.2105
X6.206Y-4.714
X6.2062Y-4.6798
X6.2097Y-3.9449
X6.2146Y-3.9026
X6.2167Y-4.1177
X6.2264Y-3.7579
X6.2365Y-4.8169
X6.2402Y-3.9705
X6.2461Y-4.551
X6.2464Y-4.586
X6.2471Y-2.9875
X6.2571Y-2.7747
X6.275Y-4.8167
X6.2844Y-5.4996
X6.2844Y-5.5547
X6.2903Y-2.9966
X6.3138Y-2.8402
X6.3147Y-4.2581
X6.315Y-3.7539
X6.3315Y-4.5859
X6.3318Y-4.5509
X6.357Y-4.9356
X6.3573Y-4.9706
X6.371Y-4.1412
X6.3996Y-3.9626
X6.4138Y-4.432
X6.4242Y-3.9045
X6.4337Y-3.1957
X6.4426Y-4.9707
X6.4429Y-4.9357
X6.4523Y-4.4322
X6.4602Y-3.2539
X6.4636Y-3.1439
X6.4665Y-4.0276
X6.4784Y-3.8578
X6.4792Y-3.7013
X6.4826Y-4.2951
X6.4828Y-4.3293
X6.4895Y-4.4322
X6.5063Y-3.1718
X6.5063Y-3.2305
X6.5162Y-4.8171
X6.5173Y-2.076
X6.5229Y-4.7142
X6.5231Y-4.68
X6.5389Y-3.8578
X6.5397Y-3.7011
X6.5534Y-4.8171
X6.5628Y-4.5508
X6.5631Y-4.5858
X6.5919Y-4.8169
X6.5999Y-3.8578
X6.6018Y-3.7013
X6.6059Y-2.272
X6.6483Y-3.1695
X6.6483Y-3.2315
X6.6484Y-4.5852
X6.6487Y-4.5502
X6.6739Y-4.9358
X6.6742Y-4.9708
X6.6851Y-5.3373
X6.698Y-2.6279
X6.7307Y-4.4313
X6.7512Y-3.4802
X6.7516Y-3.5291
X6.7598Y-4.9712
X6.7601Y-4.9362
X6.7677Y-3.189
X6.7692Y-4.4315
X6.7932Y-4.2433
X6.7975Y-2.6286
X6.7995Y-4.2944
X6.7997Y-4.3286
X6.8064Y-4.4315
X6.8334Y-4.8176
X6.8401Y-4.7147
X6.8403Y-4.6805
X6.8706Y-4.8176
X6.8797Y-4.5501
X6.88Y-4.5851
X6.883Y-3.3498
X6.8831Y-3.0786
X6.8863Y-4.138
X6.9091Y-4.8174
X6.943Y-3.3498
X6.9439Y-3.0783
X6.9649Y-4.5851
X6.9652Y-4.5501
X6.9911Y-4.9363
X6.9914Y-4.9713
X6.9963Y-3.2444
X7.0094Y-2.076
X7.0266Y-5.4715
X7.0276Y-5.5177
X7.0365Y-3.1859
X7.0413Y-2.4287
X7.0441Y-2.522
X7.0472Y-4.4312
X7.0738Y-5.4715
X7.0748Y-5.5177
X7.0765Y-4.9714
X7.0768Y-4.9364
X7.0819Y-3.6811
X7.0819Y-3.7441
X7.0819Y-3.815
X7.0819Y-3.876
X7.0857Y-4.4314
X7.116Y-4.2943
X7.1162Y-4.3285
X7.1211Y-5.4715
X7.122Y-5.5177
X7.1224Y-2.3673
X7.1229Y-4.4314
X7.1311Y-3.6811
X7.1311Y-3.876
X7.1323Y-3.3331
X7.1501Y-4.8178
X7.1568Y-4.7149
X7.157Y-4.6807
X7.1663Y-5.4715
X7.1673Y-5.5177
X7.1823Y-3.6811
X7.1823Y-3.876
X7.1873Y-4.8178
X7.1962Y-4.55
X7.1965Y-4.585
X7.2Y-2.4378
X7.2035Y-2.5323
X7.2258Y-4.8176
X7.2329Y-2.8848
X7.2331Y-2.765
X7.2331Y-2.9465
X7.2332Y-2.8251
X7.2736Y-5.0787
X7.2736Y-5.3701
X7.2756Y-4.6083
X7.2938Y-2.9458
X7.295Y-2.765
X7.3078Y-4.9365
X7.3081Y-4.9715
X7.3142Y-3.5177
X7.3142Y-3.5669
X7.3142Y-3.6181
X7.3327Y-2.8937
X7.3517Y-2.7465
X7.3752Y-3.5177
X7.3752Y-2.8297
X7.3878Y-4.9065
X7.3878Y-4.9872
X7.3895Y-4.586
X7.3895Y-4.6361
X7.3937Y-5.1378
X7.3937Y-5.2461
X7.3937Y-5.4528
X7.4123Y-2.7464
X7.4144Y-2.9468
X7.4252Y-3.065
X7.435Y-4.9449
X7.4367Y-2.8903
X7.4376Y-2.8292
X7.4461Y-3.5177
X7.4584Y-4.7429
X7.4603Y-4.6824
X7.4823Y-4.9065
X7.4823Y-4.9872
X7.4882Y-5.1378
X7.4882Y-5.2461
X7.5091Y-3.5177
X7.5091Y-3.5669
X7.5091Y-3.6181
X7.5246Y-4.5458
X7.5246Y-4.6001
X7.5545Y-4.5733
X7.5591Y-3.0244
X7.561Y-3.3354
X7.5791Y-4.656
X7.5859Y-4.5455
X7.5859Y-4.6001
X7.6473Y-4.4659
X7.6866Y-4.4658
X7.6898Y-3.3587
X7.6917Y-3.6559
X7.7738Y-5.0471
X7.7795Y-4.5597
X7.8071Y-4.6004
X7.815Y-4.439
X7.815Y-4.5177
X7.9325Y-2.9018
X7.9803Y-4.439
X7.9803Y-4.5157
X7.9803Y-4.5945
X8.0142Y-2.5276
X8.0155Y-2.6378
X8.0169Y-2.6975
X8.0571Y-4.7539
X8.0571Y-4.9567
X8.1319Y-4.7539
X8.1319Y-4.9567
X8.1791Y-4.815
X8.1791Y-4.8917
X8.2426Y-3.1791
X8.3031Y-3.1792
X8.3406Y-2.3583
X8.3638Y-3.1787
X8.4229Y-3.1787
X8.3108Y-2.701
X8.3108Y-2.7345
X8.3108Y-2.7679
X8.3108Y-2.8014
X8.3108Y-2.8349
X8.3108Y-2.8683
X8.3108Y-2.9018
X8.3108Y-2.9353
X8.3639Y-2.701
X8.3639Y-2.7345
X8.3639Y-2.7679
X8.3639Y-2.8014
X8.3639Y-2.8349
X8.3639Y-2.8683
X8.3639Y-2.9018
X8.3639Y-2.9353
T3
X4.4291Y-4.9528
X4.9173Y-3.6988
X4.8071Y-4.1949
X8.0846Y-4.5591
X4.685Y-2.0748
X7.7697Y-4.4075
X6.128Y-3.002
X4.5295Y-5.0472
X7.437Y-5.1909
X5.4811Y-2.8602
X3.8709Y-1.4287
X4.9646Y-3.7717
X7.2264Y-3.124
X3.2681Y-1.4465
X3.4965Y-1.8728
X7.3839Y-4.5335
X7.3307Y-5.6378
X3.0122Y-1.6169
X5.128Y-3.4311
X4.1476Y-4.6772
X4.5846Y-2.1555
X4.6988Y-4.2303
X4.8878Y-5.1594
X7.3319Y-3.9823
X6.2461Y-2.7185
X3.0122Y-2.113
X8.187Y-4.7638
X6.1783Y-3.5488
X7.7551Y-3.9291
X3.0122Y-2.0185
X3.0122Y-1.8177
X5.5157Y-3.1047
X4.1161Y-2.0217
X7.2283Y-3.2441
X5.1949Y-3.0965
X5.0256Y-3.8327
X3.5004Y-1.7902
X4.8425Y-3.6496
X4.0827Y-4.7854
X6.8287Y-5.5039
X5.4035Y-3.748
X5.4933Y-3.3413
X4.685Y-4.6358
X3.0122Y-2.2173
X5.3307Y-3.8681
X7.7776Y-5.3406
X7.139Y-4.0217
X5.378Y-3.2598
X4.5256Y-4.8189
X5.6969Y-3.7028
X3.0122Y-1.5165
X4.7343Y-5.1811
X6.1587Y-3.4646
X4.8346Y-4.872
X5.826Y-3.5705
X7.6693Y-4.8228
X3.0122Y-1.9161
X7.3508Y-4.6866
X5.1024Y-3.9744
X3.0122Y-1.7173
X4.4764Y-4.8858
X7.4291Y-4.3642
X2.6673Y-3.3075
X5.9732Y-3.5311
X5.7008Y-3.4075
X5.9154Y-2.9626
X5.1969Y-2.8681
X2.6587Y-3.4287
X7.6969Y-2.9508
X4.5728Y-4.5236
X2.8189Y-2.622
X4.7894Y-2.0669
X6.0551Y-3.5492
T4
X3.7598Y-2.5512
X3.8386Y-2.5512
X4.6122Y-4.9685
X4.6909Y-4.9685
T5
X7.5492Y-3.9996
T6
X7.5492Y-4.1886
T7
X3.4344Y-5.5271
X3.4344Y-5.7271
X3.5344Y-5.5271
X3.5344Y-5.7271
X3.6344Y-5.5271
X3.6344Y-5.7271
X3.7344Y-5.5271
X3.7344Y-5.7271
X3.8344Y-5.5271
X3.8344Y-5.7271
X3.9344Y-5.5271
X3.9344Y-5.7271
X4.0344Y-5.5271
X4.0344Y-5.7271
X4.1344Y-5.5271
X4.1344Y-5.7271
X4.2344Y-5.5271
X4.2344Y-5.7271
X4.3344Y-5.5271
X4.3344Y-5.7271
X4.4344Y-5.5271
X4.4344Y-5.7271
X4.5344Y-5.5271
X4.5344Y-5.7271
X4.6344Y-5.5271
X4.6344Y-5.7271
X4.7344Y-5.5271
X4.7344Y-5.7271
X4.8344Y-5.5271
X4.8344Y-5.7271
X4.9344Y-5.5271
X4.9344Y-5.7271
X5.0344Y-5.5271
X5.0344Y-5.7271
X5.1344Y-5.5271
X5.1344Y-5.7271
X5.2344Y-5.5271
X5.2344Y-5.7271
X5.3344Y-5.5271
X5.3344Y-5.7271
X5.4344Y-5.5271
X5.4344Y-5.7271
X5.5344Y-5.5271
X5.5344Y-5.7271
X5.6344Y-5.5271
X5.6344Y-5.7271
X5.7344Y-5.5271
X5.7344Y-5.7271
X5.8344Y-5.5271
X5.8344Y-5.7271
X5.9344Y-5.5271
X5.9344Y-5.7271
X6.0344Y-5.5271
X6.0344Y-5.7271
X6.1344Y-5.5271
X6.1344Y-5.7271
X6.2344Y-5.5271
X6.2344Y-5.7271
X6.3344Y-5.5271
X6.3344Y-5.7271
X6.4344Y-5.5271
X6.4344Y-5.7271
X6.5344Y-5.5271
X6.5344Y-5.7271
X2.7445Y-1.5173
X2.7445Y-1.6173
X2.7445Y-1.7173
X2.7445Y-1.8173
X2.7445Y-1.9173
X2.7445Y-2.0173
X2.7445Y-2.1173
X2.7445Y-2.2173
X5.147Y-2.3439
X5.3591Y-2.556
X8.3909Y-4.3657
X8.3909Y-4.5626
X8.3909Y-4.7594
X8.3909Y-4.9563
X8.3051Y-1.7972
X8.3051Y-1.8972
X8.3051Y-1.9972
T8
X6.1209Y-2.4323
X5.648Y-2.4343
X6.6154Y-2.4295
T4
G00X8.3198Y-2.6479
M15
G01X8.3789Y-2.6479
M16
G05
G00X8.3198Y-2.9884
M15
G01X8.3789Y-2.9884
M16
G05
G00X8.4667Y-2.6479
M15
G01X8.4982Y-2.6479
M16
G05
G00X8.4667Y-2.9884
M15
G01X8.4982Y-2.9884
M16
G05
T6
G00X7.9925Y-3.7677
M15
G01X7.9925Y-3.6654
M16
G05
G00X8.1539Y-3.5276
M15
G01X8.0673Y-3.5276
M16
G05
G00X8.2209Y-3.7598
M15
G01X8.2209Y-3.6732
M16
G05
T0
M30
